<mxfile host="app.diagrams.net" modified="2024-03-17T18:06:08.463Z" agent="Mozilla/5.0 (X11; Linux x86_64; rv:123.0) Gecko/20100101 Firefox/123.0" etag="6sXjSLuKXCsfYJZuJcbq" version="24.0.7" type="github">
  <diagram name="Page-1" id="_hLRplYytc_Sw27yuzk3">
    <mxGraphModel dx="1029" dy="598" grid="1" gridSize="10" guides="1" tooltips="1" connect="1" arrows="1" fold="1" page="1" pageScale="1" pageWidth="850" pageHeight="1100" math="0" shadow="0">
      <root>
        <mxCell id="0" />
        <mxCell id="1" parent="0" />
        <mxCell id="VFf6K6_mRJPB8PXeVxeM-2" value="" style="aspect=fixed;pointerEvents=1;shadow=0;dashed=0;html=1;strokeColor=none;labelPosition=center;verticalLabelPosition=bottom;verticalAlign=top;align=center;fillColor=#00188D;shape=mxgraph.mscae.enterprise.database_generic;" parent="1" vertex="1">
          <mxGeometry x="253" y="20" width="37" height="50" as="geometry" />
        </mxCell>
        <mxCell id="VFf6K6_mRJPB8PXeVxeM-3" value="Webbapplikation" style="aspect=fixed;pointerEvents=1;shadow=0;dashed=0;html=1;strokeColor=none;labelPosition=center;verticalLabelPosition=bottom;verticalAlign=top;align=center;fillColor=#00188D;shape=mxgraph.mscae.enterprise.web_server;" parent="1" vertex="1">
          <mxGeometry x="150" y="105" width="38" height="50" as="geometry" />
        </mxCell>
        <mxCell id="VFf6K6_mRJPB8PXeVxeM-4" value="Användaragent" style="aspect=fixed;pointerEvents=1;shadow=0;dashed=0;html=1;strokeColor=none;labelPosition=center;verticalLabelPosition=bottom;verticalAlign=top;align=center;fillColor=#00188D;shape=mxgraph.azure.laptop;" parent="1" vertex="1">
          <mxGeometry x="40" y="110" width="66.67" height="40" as="geometry" />
        </mxCell>
        <mxCell id="VFf6K6_mRJPB8PXeVxeM-9" value="Transkriberingstjänst" style="aspect=fixed;pointerEvents=1;shadow=0;dashed=0;html=1;strokeColor=none;labelPosition=center;verticalLabelPosition=bottom;verticalAlign=top;align=center;fillColor=#00188D;shape=mxgraph.mscae.enterprise.application_server;" parent="1" vertex="1">
          <mxGeometry x="370" y="105" width="43" height="50" as="geometry" />
        </mxCell>
        <mxCell id="VFf6K6_mRJPB8PXeVxeM-10" style="edgeStyle=orthogonalEdgeStyle;rounded=0;orthogonalLoop=1;jettySize=auto;html=1;exitX=0.5;exitY=0;exitDx=0;exitDy=0;exitPerimeter=0;entryX=0;entryY=0.5;entryDx=0;entryDy=0;entryPerimeter=0;" parent="1" source="VFf6K6_mRJPB8PXeVxeM-3" target="VFf6K6_mRJPB8PXeVxeM-2" edge="1">
          <mxGeometry relative="1" as="geometry" />
        </mxCell>
        <mxCell id="VFf6K6_mRJPB8PXeVxeM-11" style="edgeStyle=orthogonalEdgeStyle;rounded=0;orthogonalLoop=1;jettySize=auto;html=1;exitX=0.5;exitY=0;exitDx=0;exitDy=0;exitPerimeter=0;entryX=1;entryY=0.5;entryDx=0;entryDy=0;entryPerimeter=0;" parent="1" source="VFf6K6_mRJPB8PXeVxeM-9" target="VFf6K6_mRJPB8PXeVxeM-2" edge="1">
          <mxGeometry relative="1" as="geometry" />
        </mxCell>
        <mxCell id="VFf6K6_mRJPB8PXeVxeM-12" style="edgeStyle=orthogonalEdgeStyle;rounded=0;orthogonalLoop=1;jettySize=auto;html=1;exitX=1;exitY=0.51;exitDx=0;exitDy=0;exitPerimeter=0;entryX=0;entryY=0.5;entryDx=0;entryDy=0;entryPerimeter=0;" parent="1" source="VFf6K6_mRJPB8PXeVxeM-6" target="VFf6K6_mRJPB8PXeVxeM-9" edge="1">
          <mxGeometry relative="1" as="geometry">
            <Array as="points">
              <mxPoint x="370" y="130" />
            </Array>
          </mxGeometry>
        </mxCell>
        <mxCell id="VFf6K6_mRJPB8PXeVxeM-13" style="edgeStyle=orthogonalEdgeStyle;rounded=0;orthogonalLoop=1;jettySize=auto;html=1;exitX=0.64;exitY=0.49;exitDx=0;exitDy=0;exitPerimeter=0;entryX=0;entryY=0.5;entryDx=0;entryDy=0;entryPerimeter=0;" parent="1" source="VFf6K6_mRJPB8PXeVxeM-3" target="VFf6K6_mRJPB8PXeVxeM-6" edge="1">
          <mxGeometry relative="1" as="geometry" />
        </mxCell>
        <mxCell id="VFf6K6_mRJPB8PXeVxeM-16" style="edgeStyle=orthogonalEdgeStyle;rounded=0;orthogonalLoop=1;jettySize=auto;html=1;exitX=0.92;exitY=0.5;exitDx=0;exitDy=0;exitPerimeter=0;entryX=0;entryY=0.5;entryDx=0;entryDy=0;entryPerimeter=0;" parent="1" source="VFf6K6_mRJPB8PXeVxeM-4" target="VFf6K6_mRJPB8PXeVxeM-3" edge="1">
          <mxGeometry relative="1" as="geometry" />
        </mxCell>
        <mxCell id="VFf6K6_mRJPB8PXeVxeM-6" value="&lt;div&gt;Transkriberingskö&lt;/div&gt;&lt;div&gt;(Kafka Topic)&lt;br&gt;&lt;/div&gt;" style="verticalLabelPosition=top;html=1;verticalAlign=bottom;align=center;strokeColor=none;fillColor=#00BEF2;shape=mxgraph.azure.queue_generic;pointerEvents=1;labelPosition=center;" parent="1" vertex="1">
          <mxGeometry x="241.5" y="120" width="60" height="20" as="geometry" />
        </mxCell>
        <mxCell id="GzZwiZcYudEQCoE9HZqI-5" value="Apache ZooKeeper" style="aspect=fixed;pointerEvents=1;shadow=0;dashed=0;html=1;strokeColor=none;labelPosition=center;verticalLabelPosition=bottom;verticalAlign=top;align=center;fillColor=#00188D;shape=mxgraph.mscae.enterprise.application_server;" vertex="1" parent="1">
          <mxGeometry x="250" y="180" width="43" height="50" as="geometry" />
        </mxCell>
        <mxCell id="GzZwiZcYudEQCoE9HZqI-6" style="edgeStyle=none;curved=1;rounded=0;orthogonalLoop=1;jettySize=auto;html=1;exitX=0.5;exitY=1;exitDx=0;exitDy=0;exitPerimeter=0;entryX=0.5;entryY=0;entryDx=0;entryDy=0;entryPerimeter=0;fontSize=12;startSize=8;endSize=8;" edge="1" parent="1" source="VFf6K6_mRJPB8PXeVxeM-6" target="GzZwiZcYudEQCoE9HZqI-5">
          <mxGeometry relative="1" as="geometry" />
        </mxCell>
      </root>
    </mxGraphModel>
  </diagram>
</mxfile>
